<svg width="32" height="32" xmlns="http://www.w3.org/2000/svg">
    <rect fill="none" height="34" width="34" y="-1" x="-1"/>
    <path d="m9.21929,21.2856l-2.29516,1.32526c-0.72374,0.41827 -1.56705,0.52933 -2.37367,0.31253c-0.80736,-0.2163 -1.48176,-0.73396 -1.89978,-1.45769l-0.22795,-0.39516c-0.86252,-1.49393 -0.34902,-3.41117 1.14488,-4.27344l10.27577,-5.93285c1.49415,-0.86252 3.41068,-0.34827 4.27344,1.14516l0.22795,0.39516c0.41802,0.72374 0.52883,1.5668 0.31278,2.37392c-0.2163,0.80711 -0.73396,1.48176 -1.45769,1.89978l-0.90916,0.52493c-0.44645,0.25762 -0.59932,0.82823 -0.34146,1.27468c0.25784,0.4467 0.82799,0.60004 1.27468,0.34146l0.90916,-0.52471c2.3851,-1.37701 3.20531,-4.43796 1.82808,-6.82331l-0.2282,-0.39516c-1.37677,-2.38485 -4.43725,-3.20484 -6.82281,-1.8283l-10.27577,5.93282c-2.3851,1.37701 -3.20534,4.43775 -1.82808,6.82309l0.22795,0.39516c0.66712,1.15535 1.74421,1.98191 3.03301,2.32724c0.43041,0.11518 0.86689,0.17229 1.3007,0.17229c0.86543,0 1.71968,-0.22699 2.48935,-0.67124l2.29516,-1.32498c0.44645,-0.25784 0.59932,-0.82848 0.34171,-1.27493c-0.2578,-0.44574 -0.82774,-0.59883 -1.2749,-0.34171z"/>
    <path d="m31.19624,9.93829l-0.22798,-0.39516c-0.66712,-1.15535 -1.74424,-1.98191 -3.03301,-2.32724c-1.28927,-0.34511 -2.63469,-0.16842 -3.79005,0.49895l-2.29519,1.32498c-0.44645,0.25787 -0.59932,0.82848 -0.34171,1.27493c0.25784,0.44645 0.82848,0.59954 1.27493,0.34171l2.29519,-1.32526c0.72398,-0.41752 1.5678,-0.52834 2.37367,-0.31253c0.80733,0.2163 1.48176,0.73396 1.89975,1.45769l0.22798,0.39516c0.86277,1.4939 0.34898,3.41093 -1.14491,4.27344l-10.2758,5.93285c-1.49365,0.86227 -3.41093,0.34827 -4.27341,-1.14516l-0.22798,-0.39516c-0.41802,-0.72374 -0.52883,-1.5668 -0.31278,-2.37392c0.2163,-0.80711 0.73396,-1.48176 1.45769,-1.89978l0.90916,-0.52493c0.44645,-0.25762 0.59932,-0.82823 0.34146,-1.27468c-0.25737,-0.44596 -0.82752,-0.59954 -1.27468,-0.34146l-0.90916,0.52471c-2.3851,1.37701 -3.20531,4.43796 -1.82808,6.82331l0.2282,0.39516c0.924,1.60059 2.60626,2.49641 4.33396,2.49641c0.84672,0 1.70438,-0.21531 2.48888,-0.66808l10.2758,-5.93285c1.15535,-0.66687 1.98191,-1.74424 2.32724,-3.03277c0.34536,-1.28881 0.16796,-2.63497 -0.49916,-3.79032z"/>
</svg>