<svg width="32" height="32" xmlns="http://www.w3.org/2000/svg">
    <circle r="15.83629" fill="#F99400" cy="16.05854" cx="16.05754"/>
    <path fill-rule="evenodd" fill="#FFFFFF"
          d="m14.55274,19.31588c-0.57116,-0.13267 -1.10361,-0.32447 -1.60967,-0.58489c-0.18124,-0.09361 -0.35966,-0.19391 -0.5328,-0.30159c-0.51063,-0.31884 -0.66935,-0.97657 -0.36248,-1.48263c0.31567,-0.51978 0.96988,-0.6887 1.49213,-0.37198c0.5138,0.31074 1.05822,0.53667 1.64979,0.64331c1.16414,0.20904 2.2579,0.01654 3.27706,-0.58278c0.20798,-0.12247 0.41808,-0.21854 0.66618,-0.21713c0.48107,0.00282 0.90232,0.31074 1.04203,0.76859c0.14042,0.46136 -0.03449,0.96073 -0.44306,1.22362c-0.63662,0.40963 -1.32603,0.6982 -2.06013,0.87909c-0.03167,0.00739 -0.06264,0.01654 -0.10698,0.02815c0.02991,0.03238 0.05314,0.05771 0.07777,0.08235c0.65246,0.65246 1.30526,1.30385 1.95701,1.95737c0.38113,0.38218 0.46136,0.90654 0.20834,1.34362c-0.36423,0.62958 -1.2018,0.7341 -1.72651,0.21256c-0.65034,-0.64682 -1.29717,-1.29646 -1.94505,-1.94434c-0.02323,-0.02323 -0.04505,-0.04821 -0.09678,-0.10452c-0.02147,0.03836 -0.03308,0.07566 -0.05701,0.09959c-0.64929,0.65175 -1.29858,1.30245 -1.95068,1.95138c-0.44729,0.44623 -1.13036,0.44342 -1.56322,-0.00141c-0.39591,-0.40682 -0.40717,-1.05294 -0.02428,-1.47981c0.05173,-0.05842 0.10804,-0.11332 0.16294,-0.16857c0.62289,-0.62325 1.24544,-1.24544 1.86833,-1.86903c0.02147,-0.02182 0.04364,-0.0461 0.07707,-0.08094z"
          clip-rule="evenodd"/>
    <path fill-rule="evenodd" fill="#FFFFFF"
          d="m16.05929,8.86745c2.04288,0 3.70956,1.66739 3.70921,3.71027c-0.00035,2.04534 -1.6512,3.71027 -3.7078,3.71097c-2.06822,0.00211 -3.71062,-1.66527 -3.71379,-3.70393c-0.00352,-2.0457 1.65155,-3.71167 3.71238,-3.71731zm1.5333,3.71379c0.0007,-0.84531 -0.68307,-1.53471 -1.52415,-1.53682c-0.85234,-0.00211 -1.54668,0.68131 -1.54809,1.5231c-0.00141,0.84319 0.68237,1.54527 1.50761,1.54597c0.87452,0.0007 1.56392,-0.67427 1.56463,-1.53225z"
          clip-rule="evenodd"/>
</svg>