<svg width="32" height="32" xmlns="http://www.w3.org/2000/svg">
    <g transform="translate(0, 1024) scale(0.1, -0.1)" fill="#000000">
        <path fill="#00aced"
              d="m149.93411,10239.17401c-32.16808,-2.00141 -63.28087,-14.04624 -88.42583,-34.20588c-23.9805,-19.21351 -41.95678,-45.01348 -51.45437,-73.83375c-11.57178,-35.04283 -10.44371,-73.14235 3.12947,-107.71212c2.32891,-5.93144 7.89646,-17.17572 11.28066,-22.77966c13.68235,-22.59771 31.87697,-40.79233 54.47468,-54.47468c5.60394,-3.3842 16.8846,-8.95175 22.77966,-11.28066c37.62646,-14.73764 78.81907,-14.73764 116.44554,0c5.89506,2.32891 17.17572,7.89646 22.77966,11.28066c22.59771,13.68235 40.79233,31.87697 54.47468,54.47468c3.3842,5.60394 8.95175,16.8846 11.28066,22.77966c13.71874,35.00644 14.70125,73.10596 2.80197,108.8038c-4.36671,12.99096 -11.68094,27.54665 -19.83213,39.33676c-19.39546,27.94693 -48.03378,49.38019 -80.23825,59.96945c-19.03157,6.29534 -39.40954,8.91536 -59.49639,7.64174zm61.64336,-86.02414c7.82368,-1.27362 14.5193,-4.58504 20.74186,-10.22537c2.29252,-2.07419 2.0378,-2.0378 8.15119,-0.29111c4.98532,1.41918 10.51649,3.52976 15.8657,6.04061c2.07419,0.94612 3.85726,1.6739 3.96643,1.56474c0.47306,-0.47306 -2.83836,-7.49618 -5.13088,-10.91677c-2.00141,-2.94753 -6.4045,-7.31424 -9.67954,-9.57037c-3.09308,-2.14696 -3.31142,-2.11058 3.96643,-0.54584c3.45698,0.72778 13.57318,3.89365 16.15682,5.02171c0.80056,0.36389 -0.43667,-1.60113 -3.7117,-5.82228c-2.47447,-3.20225 -10.84399,-11.46261 -13.79152,-13.64596l-2.21974,-1.63752l-0.21834,-6.36812c-0.72778,-18.99518 -3.63892,-32.45919 -10.4801,-48.03378c-5.85867,-13.46402 -12.66345,-23.39828 -23.17994,-33.87837c-20.2688,-20.19602 -44.2493,-31.58585 -71.90512,-34.16949c-5.13088,-0.47306 -18.66768,-0.47306 -23.50744,0c-13.90069,1.38279 -26.52775,4.80338 -38.46342,10.40732c-4.0392,1.89224 -9.60676,4.91255 -12.04484,6.55006l-1.23723,0.83695l8.15119,-0.03639c8.36952,-0.03639 12.69984,0.3275 18.88601,1.56474c7.31424,1.49196 15.02875,4.25754 21.46965,7.67813c3.3842,1.78307 11.46261,6.95034 11.8265,7.56896c0.10917,0.18195 -0.76417,0.40028 -1.89224,0.54584c-13.57318,1.49196 -24.19884,7.93285 -31.40391,18.99518c-1.63752,2.47447 -3.67531,6.7684 -4.18476,8.91536c-0.25472,0.94612 -0.21834,0.94612 1.16446,0.61862c3.20225,-0.72778 15.75654,-0.10917 15.75654,0.76417c0,0.14556 -0.54584,0.40028 -1.16446,0.50945c-4.54865,0.90973 -11.68094,4.69421 -15.90209,8.4423c-7.82368,6.95034 -12.26317,14.59208 -14.04624,24.12606c-0.47306,2.72919 -0.76417,8.04202 -0.40028,8.04202c0.07278,0 1.09168,-0.47306 2.25613,-1.05529c2.94753,-1.45557 7.31424,-2.76558 11.57178,-3.49337c1.96502,-0.3275 3.60253,-0.54584 3.67531,-0.47306c0.07278,0.07278 -1.16446,1.16446 -2.76558,2.40169c-9.17009,7.31424 -14.30097,17.576 -14.77403,29.58444c-0.25472,6.04061 0.21834,9.75231 1.89224,14.77403c1.16446,3.49337 3.23864,8.1148 3.63892,8.1148c0.10917,0 0.72778,-0.61862 1.38279,-1.3464c11.53539,-13.39124 23.43466,-22.9616 36.93507,-29.76639c13.20929,-6.62284 28.01971,-10.55288 42.75735,-11.35344c4.22115,-0.21834 4.36671,-0.21834 4.11198,0.47306c-1.0189,2.58364 -1.31001,10.66204 -0.58223,15.31987c1.27362,8.07841 4.83977,15.02875 10.88038,21.32409c6.47728,6.73201 14.08263,10.91677 22.27021,12.26317c1.49196,0.21834 2.94753,0.47306 3.23864,0.54584c1.71029,0.3275 9.02453,0.10917 11.97206,-0.36389z"/>
    </g>
</svg>