<svg width="32" height="32" xmlns="http://www.w3.org/2000/svg">
    <g>
        <rect fill="none" height="34" width="34" y="-1" x="-1"/>
    </g>
    <g>
        <circle fill="#4D76A1" r="15.74916" cy="15.98172" cx="15.98172"/>
        <path fill-rule="evenodd" clip-rule="evenodd" fill="#FFFFFF"
              d="m15.38683,22.88914l1.23611,0c0,0 0.37339,-0.04099 0.56401,-0.24649c0.17546,-0.18866 0.16985,-0.54296 0.16985,-0.54296s-0.02414,-1.65863 0.74566,-1.90288c0.75885,-0.2406 1.73331,1.60305 2.76617,2.31193c0.78103,0.5365 1.37452,0.41887 1.37452,0.41887l2.76168,-0.03846c0,0 1.44471,-0.089 0.75969,-1.22489c-0.05615,-0.09293 -0.39894,-0.84027 -2.05336,-2.37593c-1.73163,-1.60726 -1.49973,-1.34729 0.58619,-4.1275c1.27037,-1.69317 1.77823,-2.72686 1.61961,-3.1696c-0.15132,-0.42168 -1.08564,-0.31022 -1.08564,-0.31022l-3.10952,0.01937c0,0 -0.23049,-0.03144 -0.40146,0.07075c-0.16704,0.10023 -0.27457,0.3338 -0.27457,0.3338s-0.49214,1.31023 -1.14852,2.4245c-1.38463,2.35123 -1.93826,2.47532 -2.16453,2.32933c-0.52639,-0.34026 -0.39501,-1.36694 -0.39501,-2.09631c0,-2.27852 0.3456,-3.22855 -0.67294,-3.47449c-0.33802,-0.0817 -0.58675,-0.1356 -1.45116,-0.1443c-1.1095,-0.01151 -2.04859,0.00337 -2.58032,0.2639c-0.35374,0.17322 -0.62662,0.55924 -0.46042,0.58142c0.2055,0.02751 0.67098,0.12549 0.91775,0.46154c0.31864,0.43347 0.30741,1.40709 0.30741,1.40709s0.18304,2.68223 -0.42757,3.01547c-0.41915,0.22853 -0.99411,-0.23807 -2.22854,-2.37116c-0.63252,-1.09265 -1.11006,-2.30041 -1.11006,-2.30041s-0.09208,-0.22572 -0.25632,-0.34644c-0.19933,-0.14627 -0.47783,-0.19287 -0.47783,-0.19287l-2.95483,0.01937c0,0 -0.44358,0.01235 -0.60641,0.20522c-0.14486,0.17153 -0.01151,0.52639 -0.01151,0.52639s2.31333,5.41218 4.93267,8.1396c2.40176,2.50059 5.12919,2.33635 5.12919,2.33635l0,0z"/>
    </g>
</svg>